<mxfile host="app.diagrams.net" modified="2022-04-23T08:13:19.671Z" agent="5.0 (Windows NT 10.0; Win64; x64) AppleWebKit/537.36 (KHTML, like Gecko) Chrome/100.0.4896.127 Safari/537.36" etag="RFcazueRNlnHbbIB6pyG" version="17.4.6" type="github">
  <diagram id="6FP7xkjOFaweACz3GKov" name="第 1 页">
    <mxGraphModel dx="1038" dy="539" grid="0" gridSize="10" guides="1" tooltips="1" connect="1" arrows="1" fold="1" page="1" pageScale="1" pageWidth="827" pageHeight="1169" math="0" shadow="0">
      <root>
        <mxCell id="0" />
        <mxCell id="1" parent="0" />
        <mxCell id="rNJncMP2Dg-hNLsM6tTc-6" style="edgeStyle=orthogonalEdgeStyle;rounded=0;orthogonalLoop=1;jettySize=auto;html=1;entryX=0;entryY=0.5;entryDx=0;entryDy=0;" edge="1" parent="1" source="rNJncMP2Dg-hNLsM6tTc-1" target="rNJncMP2Dg-hNLsM6tTc-3">
          <mxGeometry relative="1" as="geometry" />
        </mxCell>
        <mxCell id="rNJncMP2Dg-hNLsM6tTc-7" style="edgeStyle=orthogonalEdgeStyle;rounded=0;orthogonalLoop=1;jettySize=auto;html=1;entryX=0;entryY=0.7;entryDx=0;entryDy=0;" edge="1" parent="1" source="rNJncMP2Dg-hNLsM6tTc-1" target="rNJncMP2Dg-hNLsM6tTc-4">
          <mxGeometry relative="1" as="geometry" />
        </mxCell>
        <mxCell id="rNJncMP2Dg-hNLsM6tTc-8" style="edgeStyle=orthogonalEdgeStyle;rounded=0;orthogonalLoop=1;jettySize=auto;html=1;entryX=0;entryY=0.7;entryDx=0;entryDy=0;" edge="1" parent="1" source="rNJncMP2Dg-hNLsM6tTc-1" target="rNJncMP2Dg-hNLsM6tTc-5">
          <mxGeometry relative="1" as="geometry" />
        </mxCell>
        <mxCell id="rNJncMP2Dg-hNLsM6tTc-1" value="Haproxy" style="whiteSpace=wrap;html=1;aspect=fixed;fillColor=#f8cecc;strokeColor=#b85450;" vertex="1" parent="1">
          <mxGeometry x="87" y="195" width="80" height="80" as="geometry" />
        </mxCell>
        <mxCell id="rNJncMP2Dg-hNLsM6tTc-3" value="172.20.0.2" style="shape=datastore;whiteSpace=wrap;html=1;fillColor=#d5e8d4;strokeColor=#82b366;" vertex="1" parent="1">
          <mxGeometry x="323" y="119" width="60" height="60" as="geometry" />
        </mxCell>
        <mxCell id="rNJncMP2Dg-hNLsM6tTc-4" value="172.20.0.3" style="shape=datastore;whiteSpace=wrap;html=1;fillColor=#d5e8d4;strokeColor=#82b366;" vertex="1" parent="1">
          <mxGeometry x="325" y="193" width="60" height="60" as="geometry" />
        </mxCell>
        <mxCell id="rNJncMP2Dg-hNLsM6tTc-5" value="172.20.0.4" style="shape=datastore;whiteSpace=wrap;html=1;fillColor=#d5e8d4;strokeColor=#82b366;" vertex="1" parent="1">
          <mxGeometry x="325" y="264" width="60" height="60" as="geometry" />
        </mxCell>
        <mxCell id="rNJncMP2Dg-hNLsM6tTc-10" value="192.168.56.10:3306" style="text;html=1;strokeColor=none;fillColor=none;align=center;verticalAlign=middle;whiteSpace=wrap;rounded=0;" vertex="1" parent="1">
          <mxGeometry x="53" y="271.5" width="141" height="45" as="geometry" />
        </mxCell>
        <mxCell id="rNJncMP2Dg-hNLsM6tTc-17" style="edgeStyle=orthogonalEdgeStyle;rounded=0;orthogonalLoop=1;jettySize=auto;html=1;entryX=0;entryY=0.5;entryDx=0;entryDy=0;" edge="1" parent="1" source="rNJncMP2Dg-hNLsM6tTc-11" target="rNJncMP2Dg-hNLsM6tTc-14">
          <mxGeometry relative="1" as="geometry" />
        </mxCell>
        <mxCell id="rNJncMP2Dg-hNLsM6tTc-11" value="" style="dashed=0;outlineConnect=0;html=1;align=center;labelPosition=center;verticalLabelPosition=bottom;verticalAlign=top;shape=mxgraph.webicons.chrome;gradientColor=#DFDEDE" vertex="1" parent="1">
          <mxGeometry x="150" y="743" width="103.2" height="104" as="geometry" />
        </mxCell>
        <mxCell id="rNJncMP2Dg-hNLsM6tTc-16" style="edgeStyle=orthogonalEdgeStyle;rounded=0;orthogonalLoop=1;jettySize=auto;html=1;" edge="1" parent="1" source="rNJncMP2Dg-hNLsM6tTc-12">
          <mxGeometry relative="1" as="geometry">
            <mxPoint x="366.79998779296875" y="662" as="targetPoint" />
          </mxGeometry>
        </mxCell>
        <mxCell id="rNJncMP2Dg-hNLsM6tTc-12" value="" style="dashed=0;outlineConnect=0;html=1;align=center;labelPosition=center;verticalLabelPosition=bottom;verticalAlign=top;shape=mxgraph.webicons.chrome;gradientColor=#DFDEDE" vertex="1" parent="1">
          <mxGeometry x="148" y="610" width="103.2" height="104" as="geometry" />
        </mxCell>
        <mxCell id="rNJncMP2Dg-hNLsM6tTc-15" style="edgeStyle=orthogonalEdgeStyle;rounded=0;orthogonalLoop=1;jettySize=auto;html=1;entryX=0;entryY=0.5;entryDx=0;entryDy=0;" edge="1" parent="1" source="rNJncMP2Dg-hNLsM6tTc-13" target="rNJncMP2Dg-hNLsM6tTc-14">
          <mxGeometry relative="1" as="geometry" />
        </mxCell>
        <mxCell id="rNJncMP2Dg-hNLsM6tTc-13" value="" style="dashed=0;outlineConnect=0;html=1;align=center;labelPosition=center;verticalLabelPosition=bottom;verticalAlign=top;shape=mxgraph.webicons.chrome;gradientColor=#DFDEDE" vertex="1" parent="1">
          <mxGeometry x="150" y="463" width="103.2" height="104" as="geometry" />
        </mxCell>
        <mxCell id="rNJncMP2Dg-hNLsM6tTc-21" style="edgeStyle=orthogonalEdgeStyle;rounded=0;orthogonalLoop=1;jettySize=auto;html=1;entryX=0;entryY=0.5;entryDx=0;entryDy=0;" edge="1" parent="1" source="rNJncMP2Dg-hNLsM6tTc-14" target="rNJncMP2Dg-hNLsM6tTc-18">
          <mxGeometry relative="1" as="geometry" />
        </mxCell>
        <mxCell id="rNJncMP2Dg-hNLsM6tTc-22" style="edgeStyle=orthogonalEdgeStyle;rounded=0;orthogonalLoop=1;jettySize=auto;html=1;entryX=0;entryY=0.5;entryDx=0;entryDy=0;" edge="1" parent="1" source="rNJncMP2Dg-hNLsM6tTc-14" target="rNJncMP2Dg-hNLsM6tTc-19">
          <mxGeometry relative="1" as="geometry" />
        </mxCell>
        <mxCell id="rNJncMP2Dg-hNLsM6tTc-23" style="edgeStyle=orthogonalEdgeStyle;rounded=0;orthogonalLoop=1;jettySize=auto;html=1;entryX=0.005;entryY=0.647;entryDx=0;entryDy=0;entryPerimeter=0;" edge="1" parent="1" source="rNJncMP2Dg-hNLsM6tTc-14" target="rNJncMP2Dg-hNLsM6tTc-20">
          <mxGeometry relative="1" as="geometry" />
        </mxCell>
        <mxCell id="rNJncMP2Dg-hNLsM6tTc-14" value="Nginx" style="ellipse;whiteSpace=wrap;html=1;aspect=fixed;fillColor=#f8cecc;strokeColor=#b85450;" vertex="1" parent="1">
          <mxGeometry x="367" y="622" width="80" height="80" as="geometry" />
        </mxCell>
        <mxCell id="rNJncMP2Dg-hNLsM6tTc-18" value="SpringBoot服务&lt;br&gt;172.24.0.11" style="rounded=1;whiteSpace=wrap;html=1;" vertex="1" parent="1">
          <mxGeometry x="511" y="539" width="120" height="60" as="geometry" />
        </mxCell>
        <mxCell id="rNJncMP2Dg-hNLsM6tTc-19" value="SpringBoot服务&lt;br&gt;172.24.0.12" style="rounded=1;whiteSpace=wrap;html=1;" vertex="1" parent="1">
          <mxGeometry x="511" y="632" width="120" height="60" as="geometry" />
        </mxCell>
        <mxCell id="rNJncMP2Dg-hNLsM6tTc-20" value="SpringBoot服务&lt;br&gt;172.24.0.13" style="rounded=1;whiteSpace=wrap;html=1;" vertex="1" parent="1">
          <mxGeometry x="511" y="729" width="120" height="60" as="geometry" />
        </mxCell>
        <mxCell id="rNJncMP2Dg-hNLsM6tTc-24" style="edgeStyle=orthogonalEdgeStyle;rounded=0;orthogonalLoop=1;jettySize=auto;html=1;entryX=0;entryY=0.5;entryDx=0;entryDy=0;" edge="1" parent="1" source="rNJncMP2Dg-hNLsM6tTc-27" target="rNJncMP2Dg-hNLsM6tTc-28">
          <mxGeometry relative="1" as="geometry" />
        </mxCell>
        <mxCell id="rNJncMP2Dg-hNLsM6tTc-25" style="edgeStyle=orthogonalEdgeStyle;rounded=0;orthogonalLoop=1;jettySize=auto;html=1;entryX=0;entryY=0.7;entryDx=0;entryDy=0;" edge="1" parent="1" source="rNJncMP2Dg-hNLsM6tTc-27" target="rNJncMP2Dg-hNLsM6tTc-29">
          <mxGeometry relative="1" as="geometry" />
        </mxCell>
        <mxCell id="rNJncMP2Dg-hNLsM6tTc-26" style="edgeStyle=orthogonalEdgeStyle;rounded=0;orthogonalLoop=1;jettySize=auto;html=1;entryX=0;entryY=0.7;entryDx=0;entryDy=0;" edge="1" parent="1" source="rNJncMP2Dg-hNLsM6tTc-27" target="rNJncMP2Dg-hNLsM6tTc-30">
          <mxGeometry relative="1" as="geometry" />
        </mxCell>
        <mxCell id="rNJncMP2Dg-hNLsM6tTc-27" value="Haproxy" style="whiteSpace=wrap;html=1;aspect=fixed;fillColor=#f8cecc;strokeColor=#b85450;" vertex="1" parent="1">
          <mxGeometry x="730" y="630" width="80" height="80" as="geometry" />
        </mxCell>
        <mxCell id="rNJncMP2Dg-hNLsM6tTc-28" value="172.20.0.2" style="shape=datastore;whiteSpace=wrap;html=1;fillColor=#d5e8d4;strokeColor=#82b366;" vertex="1" parent="1">
          <mxGeometry x="939" y="549" width="60" height="60" as="geometry" />
        </mxCell>
        <mxCell id="rNJncMP2Dg-hNLsM6tTc-29" value="172.20.0.3" style="shape=datastore;whiteSpace=wrap;html=1;fillColor=#d5e8d4;strokeColor=#82b366;" vertex="1" parent="1">
          <mxGeometry x="942" y="628" width="60" height="60" as="geometry" />
        </mxCell>
        <mxCell id="rNJncMP2Dg-hNLsM6tTc-30" value="172.20.0.4" style="shape=datastore;whiteSpace=wrap;html=1;fillColor=#d5e8d4;strokeColor=#82b366;" vertex="1" parent="1">
          <mxGeometry x="939" y="707" width="60" height="60" as="geometry" />
        </mxCell>
        <mxCell id="rNJncMP2Dg-hNLsM6tTc-31" value="192.168.56.10:3306" style="text;html=1;strokeColor=none;fillColor=none;align=center;verticalAlign=middle;whiteSpace=wrap;rounded=0;" vertex="1" parent="1">
          <mxGeometry x="669" y="701.5" width="141" height="45" as="geometry" />
        </mxCell>
        <mxCell id="rNJncMP2Dg-hNLsM6tTc-36" style="edgeStyle=orthogonalEdgeStyle;rounded=0;orthogonalLoop=1;jettySize=auto;html=1;" edge="1" parent="1" source="rNJncMP2Dg-hNLsM6tTc-32" target="rNJncMP2Dg-hNLsM6tTc-27">
          <mxGeometry relative="1" as="geometry" />
        </mxCell>
        <mxCell id="rNJncMP2Dg-hNLsM6tTc-32" value="" style="shape=curlyBracket;whiteSpace=wrap;html=1;rounded=1;flipH=1;" vertex="1" parent="1">
          <mxGeometry x="634" y="578" width="38" height="184" as="geometry" />
        </mxCell>
      </root>
    </mxGraphModel>
  </diagram>
</mxfile>
